<svg width="161" height="166" viewBox="0 0 161 166" fill="none" xmlns="http://www.w3.org/2000/svg">
<path d="M113.67 99.82C113.61 111.94 110.52 123.57 105.67 134.58C103.335 139.817 100.628 144.891 97.9208 149.964C96.7093 152.235 95.4982 154.505 94.3202 156.79C93.8544 157.864 93.0587 158.763 92.0482 159.354C91.0377 159.946 89.8649 160.2 88.7001 160.08C82.9 159.93 77.0902 159.95 71.3102 160.08C70.192 160.186 69.0682 159.945 68.0926 159.388C67.1171 158.831 66.3373 157.987 65.86 156.97C65.1908 155.758 64.5072 154.561 63.8212 153.36L63.4501 152.71C63.1073 152.12 62.7596 151.533 62.412 150.946C61.6642 149.683 60.9164 148.42 60.2201 147.13C59.37 145.59 58.62 144.01 57.88 142.4C57.5521 141.671 57.2189 140.942 56.8856 140.213C56.3043 138.942 55.723 137.671 55.17 136.4L55.2301 136.32C54.87 135.59 54.5301 134.83 54.2301 134.1C54.2252 134.067 54.2252 134.033 54.2301 134C54.2301 133.93 54.16 133.83 54.12 133.74L54.0301 133.53C41.0301 103.9 45.7101 77.45 65.0301 50.53C64.0748 52.5413 63.0858 54.3279 62.1295 56.0555L62.128 56.0576C60.2316 59.4828 58.4635 62.6763 57.3402 66.93C49.0502 97.73 53.9701 126.53 71.1002 153.35C71.6122 154.294 72.3878 155.069 73.3324 155.58C74.2767 156.092 75.3497 156.317 76.42 156.23C78.4078 156.161 80.3995 156.178 82.39 156.195C84.9855 156.217 87.5792 156.24 90.16 156.07C90.9542 155.993 91.7225 155.746 92.4127 155.346C93.1029 154.945 93.6988 154.401 94.16 153.75C104.54 133.75 110.61 112.67 108.31 89.81C108.186 88.6149 107.942 87.4284 107.68 86.1501L107.679 86.1472L107.678 86.1422L107.676 86.1327L107.673 86.1185L107.669 86.0983C107.533 85.4351 107.392 84.747 107.26 84.02C101.86 86.31 95.65 86.32 90.0001 85.02C88.1852 84.616 86.4112 84.0515 84.639 83.4876C83.6478 83.1722 82.6571 82.8569 81.66 82.57C80.6173 82.2659 79.5785 81.954 78.546 81.6441C77.9149 81.4546 77.286 81.2659 76.66 81.08C75.7552 80.8494 74.8924 80.5663 73.952 80.2577L73.5094 80.1128C73.3207 80.0511 73.128 79.9887 72.931 79.9256C72.6915 79.8489 72.4452 79.7713 72.1905 79.6932L71.8502 79.59C72.9239 79.7172 73.9991 79.836 75.0743 79.9548C76.8727 80.1535 78.6703 80.3522 80.4601 80.59C82.1403 80.8013 83.8253 81.0692 85.5128 81.3374C88.5362 81.8178 91.5673 82.2995 94.5902 82.46C97.3202 82.61 100.39 82.1 102.43 80.13C104.65 77.99 104.07 74.75 102.76 72.3C99.6156 66.2938 95.3761 60.9284 90.2601 56.48C85.2601 52.22 78.6002 47.81 71.87 47.57C70.9169 47.5366 69.9625 47.5935 69.0201 47.74C68.6066 47.7794 68.1979 47.8598 67.8002 47.98L68.11 47.49C68.618 46.6389 69.1525 45.7824 69.6923 44.9174C72.4247 40.5379 75.2928 35.9408 75.5602 30.73C75.7413 27.5034 75.0504 24.2875 73.5602 21.42C73.2189 20.7768 72.8429 20.1472 72.4667 19.5173C71.5973 18.0613 70.7267 16.6033 70.2801 14.97C69.6278 12.4362 69.8138 9.7593 70.8102 7.34001C71.4095 5.8374 72.358 4.49896 73.5768 3.43518C74.7958 2.37141 76.2501 1.61283 77.8202 1.22206C79.39 0.831293 81.0304 0.819559 82.6056 1.18782C84.181 1.55609 85.6461 2.29378 86.88 3.34001C90.2401 6.09001 90.7701 10.67 89.88 14.68C89.2128 17.0439 88.2447 19.3124 87.0001 21.43C88.0934 17.79 88.5104 13.9804 88.2301 10.19C88.1398 9.27174 87.8573 8.38272 87.4012 7.58069C86.9449 6.77865 86.3253 6.08152 85.5821 5.53457C84.839 4.98761 83.9891 4.60306 83.0878 4.40587C82.1864 4.20869 81.2538 4.20328 80.3502 4.39001C79.4645 4.62194 78.641 5.04587 77.9376 5.63172C77.2342 6.21758 76.6683 6.95101 76.2801 7.78001C73.7001 12.96 76.2801 19.18 79.37 23.5C79.5602 23.78 82.9901 19.03 83.2201 18.6C85.0802 15.19 86.5301 10.44 83.9901 7.01C83.9901 7.01362 84.0126 7.02785 84.0538 7.05376L84.0575 7.05602C84.8329 7.54283 91.8661 11.9586 82.18 26.89C82.7921 27.8409 83.4847 28.7376 84.2501 29.57C93.93 41.66 102.74 55.44 108.14 70.07C109.07 72.6 109.91 75.16 110.64 77.76C112.67 84.9368 113.69 92.3616 113.67 99.82Z" fill="#0A273C"/>
<path d="M64.7902 59.15C59.7103 87.55 58.7902 114.81 69.6803 142.15C54.6302 115.09 54.2003 86.22 64.7902 59.15Z" fill="#0A273C"/>
<path d="M83.0104 80.0009L83.0001 80C83.0001 79.9695 83.0011 79.9575 83.0011 79.9575C83.0011 79.9575 83.0026 79.9623 83.0043 79.9701L83.0104 80.0009Z" fill="#0A273C"/>
<path d="M83.0104 80.0009C83.5675 80.0493 84.2057 80.1145 84.9025 80.1856C90.8417 80.7916 101.018 81.8298 101.17 76.66C104.17 84.27 88.2401 81.44 83.0301 80.06C83.0211 80.0417 83.0148 80.0198 83.0104 80.0009Z" fill="#0A273C"/>
<path fill-rule="evenodd" clip-rule="evenodd" d="M13.41 119.32C13.3758 119.635 13.4342 119.953 13.578 120.236C13.722 120.518 13.9449 120.752 14.2201 120.91C14.266 120.931 14.3129 120.95 14.3607 120.965C14.4383 120.991 14.5184 121.009 14.6 121.02C14.6051 121.063 14.6051 121.107 14.6 121.15C14.5426 121.592 14.4037 122.019 14.1901 122.41C13.4269 123.827 12.9799 125.393 12.88 127C12.8468 128.578 13.0319 130.153 13.43 131.68C13.4276 131.692 13.4264 131.703 13.4269 131.715C13.4271 131.723 13.4281 131.732 13.43 131.74C13.0836 131.69 12.7465 131.589 12.43 131.44C11.9447 131.254 11.4762 131.027 11.0299 130.76C10.7201 130.57 10.43 130.36 10.15 130.15C10.15 130.101 10.1256 130.066 10.0875 130.04C10.0487 130.013 9.99572 129.995 9.94006 129.98C9.0382 129.23 8.22302 128.381 7.50988 127.45C7.05505 126.976 6.65881 126.449 6.32995 125.88C6.45641 125.792 6.56774 125.684 6.66003 125.56C6.89514 125.283 7.01208 124.924 6.98596 124.561C6.95959 124.199 6.79235 123.861 6.51989 123.62C6.38903 123.488 6.23327 123.384 6.06164 123.312C5.89001 123.241 5.70593 123.204 5.51989 123.204C5.3341 123.204 5.15002 123.241 4.97839 123.312C4.80676 123.384 4.65099 123.488 4.51989 123.62C4.3341 123.799 4.19567 124.022 4.11706 124.268C4.03869 124.514 4.02233 124.776 4.06994 125.03C4.09924 125.124 4.13635 125.214 4.18054 125.301C4.25182 125.442 4.34216 125.573 4.44885 125.69C4.6217 125.88 4.83361 126.03 5.06994 126.13C5.22375 126.186 5.38903 126.204 5.55114 126.181C5.71325 126.158 5.86755 126.096 6.00012 126C6.31091 126.613 6.71569 127.173 7.20007 127.66C7.82751 128.415 8.49523 129.136 9.20007 129.82C8.89611 129.722 8.61193 129.605 8.32092 129.485C8.10461 129.396 7.88464 129.305 7.65002 129.22C7.1864 129.021 6.7384 128.787 6.30993 128.52C6.3175 128.502 6.32433 128.484 6.33068 128.466C6.34118 128.435 6.34997 128.403 6.35705 128.371C6.36242 128.348 6.36657 128.324 6.36999 128.3C6.37658 128.044 6.31652 127.79 6.19543 127.564C6.07458 127.338 5.89684 127.147 5.68005 127.01C4.88 126.66 4.0299 127.49 3.95007 128.26C3.76013 129.34 4.78991 129.86 5.64001 129.26C5.67419 129.233 5.71618 129.207 5.75988 129.181C5.89465 129.098 6.04504 129.006 6.0299 128.84C6.14025 128.929 6.2572 129.009 6.38 129.08C7.30578 129.654 8.31921 130.073 9.38 130.32C9.5216 130.35 9.6654 130.37 9.80993 130.38C10.3158 130.793 10.8658 131.148 11.4501 131.44C12.1061 131.783 12.8165 132.01 13.5499 132.11C13.8771 133.044 14.2924 133.945 14.7899 134.8C15.0695 135.299 15.38 135.78 15.7201 136.24L15.628 136.176C15.1429 135.84 14.6844 135.522 14.12 135.24C12.4601 134.404 10.7216 133.734 8.93005 133.24C7.63268 132.951 6.30895 132.797 4.9801 132.78C4.28259 132.78 3.58312 132.812 2.88342 132.843C2.00817 132.883 1.13244 132.922 0.259881 132.9C0.195673 132.917 0.13952 132.956 0.102655 133.012C0.0880065 133.034 0.076776 133.057 0.0689635 133.082L0.06286 133.106C0.0565123 133.137 0.0552916 133.168 0.0599303 133.2C0.0684752 133.231 0.0811706 133.26 0.097528 133.286C0.116815 133.318 0.141229 133.346 0.170038 133.37C0.827264 133.774 1.52429 134.109 2.25012 134.37L4.25012 135.22C6.00964 135.94 7.85485 136.431 9.74011 136.68C10.9872 136.898 12.246 137.041 13.5099 137.11C14.451 137.143 15.3861 137.274 16.2999 137.5C17.1092 137.841 17.8563 138.314 18.5101 138.9C18.8063 139.13 19.097 139.367 19.3878 139.605C19.8824 140.01 20.3773 140.415 20.9 140.78C22.0199 141.58 23.17 142.34 24.34 143.06C23.85 143.01 23.34 142.97 22.88 142.95C22.193 142.95 21.5084 142.889 20.8238 142.829C20.0633 142.762 19.3031 142.694 18.5399 142.71H17.4801C17.4737 142.665 17.4557 142.623 17.4276 142.588C17.4147 142.572 17.4 142.558 17.3839 142.545C17.3644 142.531 17.3429 142.519 17.3199 142.51C17.1285 142.4 16.9315 142.3 16.7301 142.21C16.2628 141.97 15.7782 141.766 15.2799 141.6C14.8522 141.468 14.4186 141.372 13.9786 141.275L13.8136 141.238L13.6 141.19C12.0043 140.753 10.3265 140.708 8.71008 141.06C8.62975 140.871 8.49816 140.708 8.32995 140.59C8.13854 140.437 7.91735 140.326 7.68078 140.263C7.44421 140.199 7.19714 140.186 6.95495 140.222C6.71276 140.259 6.48083 140.345 6.27355 140.475C6.06603 140.606 5.88781 140.778 5.75012 140.98C5.64221 141.16 5.57189 141.36 5.54308 141.568C5.52917 141.67 5.52526 141.772 5.53112 141.874C5.53747 141.98 5.5548 142.087 5.58312 142.191C5.59265 142.225 5.60339 142.26 5.61511 142.294C5.63342 142.347 5.65466 142.398 5.67834 142.448C5.72839 142.554 5.79064 142.655 5.86364 142.747C5.99377 142.912 6.15588 143.049 6.33996 143.15L6.41027 143.187C6.51037 143.238 6.61413 143.282 6.72009 143.32C6.66125 143.449 6.63073 143.589 6.63 143.73C6.55993 145.09 8.63 145.93 9.63 145.05C9.79528 144.868 9.9093 144.645 9.96008 144.404C10.0111 144.163 9.99719 143.914 9.92004 143.68C10.6107 143.495 11.317 143.374 12.0299 143.32C12.89 143.23 13.7401 143.16 14.6 143.15H15.5199C14.4703 143.739 13.4674 144.408 12.5199 145.15C11.7311 145.749 10.9979 146.418 10.3299 147.15V147.2C10.1639 146.987 9.93884 146.828 9.68249 146.742C9.42638 146.657 9.15051 146.649 8.89001 146.72C8.71789 146.766 8.55724 146.848 8.41833 146.959C8.27917 147.07 8.16467 147.209 8.0819 147.367C7.99938 147.525 7.95031 147.698 7.93786 147.876C7.93078 147.976 7.93566 148.076 7.95153 148.174C7.96398 148.25 7.98351 148.326 8.00988 148.4C8.47009 149.34 10.2899 149.3 10.4601 148.17C10.5426 147.953 10.5668 147.719 10.5299 147.49L10.61 147.42C11.5751 146.486 12.6153 145.633 13.7201 144.87C14.5038 144.255 15.3444 143.716 16.2301 143.26C16.2482 143.246 16.2633 143.229 16.2753 143.21C16.287 143.192 16.2953 143.172 16.2999 143.15C17.7001 143.15 19.1 143.15 20.5001 143.22C21.9 143.29 23.2101 143.38 24.5599 143.45C24.6879 143.458 24.8151 143.472 24.941 143.493C25.0043 143.504 25.0673 143.516 25.13 143.53C25.1344 143.532 25.139 143.534 25.1439 143.535C25.1508 143.537 25.1578 143.538 25.1649 143.538C25.17 143.538 25.1752 143.538 25.1803 143.537C25.1871 143.535 25.1937 143.533 25.2001 143.53C26.7599 144.47 28.35 145.36 29.9401 146.24C33.0995 147.967 36.3646 149.501 39.6224 151.032L39.8099 151.12L40.16 151.28C38.9701 151 37.7799 150.71 36.63 150.28C35.3514 149.864 34.0402 149.556 32.7101 149.36C32.4965 149.322 32.2828 149.282 32.0692 149.243C30.892 149.028 29.7118 148.812 28.5101 148.71C24.9288 148.366 21.3146 148.705 17.86 149.71C16.9894 149.988 16.1376 150.322 15.3099 150.71C15.2433 150.75 15.163 150.776 15.0873 150.808C14.9923 150.847 14.9044 150.896 14.86 150.99C14.7799 151.16 15.1 151.25 15.2799 151.22C15.4598 151.21 15.6403 151.21 15.8199 151.22C16.5402 151.225 17.2589 151.285 17.9701 151.4C19.2899 151.59 20.62 151.76 21.9701 151.83C23.9247 151.817 25.8783 151.924 27.8199 152.15C29.5214 152.337 31.2342 152.424 32.9457 152.51C33.5174 152.539 34.089 152.567 34.66 152.6C36.3697 152.797 38.0948 152.823 39.8099 152.68C40.7084 152.627 41.6031 152.524 42.4901 152.37C45.0399 153.57 47.61 154.74 50.2201 155.81C50.942 156.104 51.6803 156.341 52.4195 156.578C52.837 156.712 53.2548 156.846 53.67 156.99L54.7201 157.38C54.3155 157.441 53.9139 157.533 53.5121 157.624C53.1888 157.698 52.8653 157.772 52.5399 157.83C50.1498 158.368 47.8082 159.104 45.5399 160.03C45.4972 160.02 45.4528 160.02 45.41 160.03L44.63 159.95C43.3422 159.8 42.0433 159.77 40.7501 159.86C40.3736 159.871 39.9989 159.914 39.63 159.99C39.5626 159.787 39.4398 159.608 39.2753 159.472C39.111 159.336 38.9115 159.248 38.7001 159.22C38.4862 159.201 38.2716 159.242 38.0792 159.337C37.8871 159.432 37.7247 159.579 37.61 159.76C37.5863 159.804 37.5648 159.848 37.5455 159.894C37.534 159.922 37.5233 159.95 37.5133 159.978C37.505 160.002 37.4972 160.026 37.4901 160.05L37.43 160.11C36.8299 161.57 39.0299 162.01 39.6 160.81C39.6622 160.682 39.6962 160.542 39.7001 160.4H40.09C41.09 160.4 42.2001 160.4 43.2601 160.35C43.7501 160.35 44.2599 160.35 44.7401 160.42L44.62 160.47C42.8165 161.236 41.089 162.171 39.4601 163.26C39.3155 163.12 39.1424 163.012 38.9525 162.945C38.7628 162.878 38.5607 162.852 38.36 162.87C37.0399 163.01 36.4601 165.02 37.6901 165.68C37.8595 165.815 38.0577 165.91 38.2694 165.957C38.4811 166.005 38.7006 166.003 38.9115 165.953C39.1224 165.903 39.3195 165.805 39.4872 165.668C39.5504 165.616 39.6088 165.56 39.662 165.498C39.7499 165.397 39.8234 165.283 39.88 165.16C39.9833 164.912 40.0253 164.642 40.0026 164.374C39.9801 164.106 39.8934 163.848 39.7501 163.62L39.9601 163.49C42.8903 161.602 46.076 160.144 49.42 159.16C50.7899 158.76 52.16 158.38 53.5599 158.09C54.2174 157.912 54.8854 157.775 55.5599 157.68C56.8004 158.181 58.0692 158.609 59.36 158.96C59.8282 159.121 60.3102 159.238 60.7999 159.31C60.8641 159.29 60.9191 159.247 60.9557 159.191C60.9921 159.134 61.0079 159.067 61.0001 159C61.0045 158.967 61.0016 158.932 60.9913 158.9C60.9811 158.868 60.964 158.839 60.941 158.814C60.9181 158.789 60.89 158.769 60.8588 158.757C60.8404 158.749 60.8214 158.744 60.8019 158.742C60.788 158.74 60.774 158.739 60.7601 158.74C60.6307 158.717 60.5038 158.684 60.38 158.64L58.9501 158.18C58.5695 157.611 58.235 157.012 57.9501 156.39C57.7792 155.993 57.621 155.596 57.465 155.204C57.2279 154.608 56.9952 154.025 56.7301 153.47C56.2899 152.55 55.7301 151.47 55.1901 150.47C54.2872 148.883 53.0729 147.495 51.62 146.39C49.8881 144.905 47.7479 143.978 45.4801 143.73C45.2799 143.73 45.0799 143.78 45.0799 143.99C45.0799 144.2 45.38 144.4 45.5199 144.6C46.2306 145.424 46.9991 146.196 47.8199 146.91C48.6261 147.61 49.3771 148.38 50.129 149.152L50.42 149.45C52.3177 151.541 54.0817 153.752 55.8419 155.958L55.8478 155.966L56.85 157.22C56.8722 157.253 56.8956 157.286 56.92 157.318C57.004 157.427 57.1017 157.525 57.2101 157.61C56.868 157.48 56.5282 157.347 56.1886 157.215L56.1842 157.213C55.4528 156.927 54.7235 156.642 53.9801 156.39C53.6349 156.277 53.288 156.167 52.9405 156.058L52.9296 156.054C51.9911 155.758 51.0497 155.461 50.14 155.09C47.62 154.04 45.14 152.91 42.66 151.74L42.37 151.25C42.0799 150.72 41.7899 150.19 41.5299 149.64C41.1381 148.818 40.8041 147.969 40.5299 147.1C40.4867 146.976 40.4427 146.853 40.3986 146.73L40.3558 146.61L40.3536 146.604C40.1879 146.142 40.0223 145.681 39.89 145.21C39.59 144.011 39.3595 142.796 39.2001 141.57C39.0389 140.912 38.922 140.244 38.85 139.57C38.85 139.057 39.0128 138.895 39.2413 138.667C39.3382 138.57 39.4469 138.462 39.5599 138.31C39.881 137.765 39.975 137.116 39.8216 136.502C39.6683 135.888 39.2797 135.36 38.7401 135.03C38.4747 134.883 38.1771 134.803 37.8736 134.798C37.5704 134.792 37.2701 134.862 37.0001 135C36.5973 135.15 36.2533 135.425 36.0192 135.785C35.785 136.145 35.6732 136.571 35.7001 137C35.7001 137.62 35.7001 138.4 36.2999 138.8C36.579 138.978 36.8917 139.097 37.2186 139.149C37.5455 139.2 37.8798 139.184 38.2001 139.1C38.2435 139.398 38.2882 139.695 38.3339 139.991C38.4249 140.579 38.5204 141.165 38.62 141.75C38.7045 142.573 38.8346 143.391 39.0101 144.2C39.4445 145.911 40.0196 147.584 40.7301 149.2C41.0799 149.95 41.4901 150.67 41.91 151.38L40.5399 150.73L39.61 150.3C39.2484 149.9 38.9144 149.475 38.61 149.03C38.2838 148.495 37.9542 147.961 37.6246 147.428C37.1661 146.686 36.7079 145.945 36.2601 145.2C36.0802 144.9 35.9178 144.591 35.7555 144.282C35.6744 144.128 35.5934 143.973 35.5101 143.82C35.5101 143.787 35.4923 143.752 35.464 143.721C35.4322 143.686 35.3876 143.656 35.34 143.64C35.318 143.63 35.2941 143.625 35.2699 143.625C35.255 143.625 35.2401 143.627 35.2257 143.631C35.2169 143.633 35.2084 143.636 35.2001 143.64C35.2589 143.585 35.3124 143.525 35.36 143.46C35.402 143.42 35.4359 143.373 35.4601 143.32C35.6088 143.171 35.7215 142.989 35.7899 142.79C35.9632 142.392 35.9962 141.946 35.8837 141.527C35.7711 141.107 35.5194 140.738 35.17 140.48C34.8744 140.331 34.5443 140.263 34.2137 140.284C33.8832 140.305 33.5643 140.414 33.2899 140.6C32.18 141.31 31.9901 143.15 33.38 143.67L33.5187 143.71C34.0091 143.852 34.6608 144.04 35.0799 143.73C35.077 143.743 35.0753 143.755 35.0748 143.768C35.0741 143.786 35.0758 143.803 35.0799 143.82C35.0799 143.854 35.0799 143.886 35.0853 143.917C35.0924 143.961 35.1095 144.004 35.15 144.05C35.5778 145.016 36.0829 145.945 36.66 146.83C36.8675 147.149 37.0712 147.479 37.2762 147.811L37.2777 147.813C37.714 148.52 38.1569 149.237 38.66 149.89L38.1027 149.631C36.3788 148.828 34.6571 148.027 32.9601 147.16C31.89 146.61 30.8199 146.05 29.7601 145.48C29.4933 144.959 29.2692 144.417 29.09 143.86C28.8534 143.057 28.6761 142.239 28.5599 141.41C28.1173 139.048 27.5499 136.712 26.86 134.41C26.38 133.267 25.7975 132.169 25.12 131.13C24.526 130.113 23.8146 129.17 23.0001 128.32C21.9669 127.253 20.8536 126.267 19.67 125.37C19.36 125.15 19.2001 125.48 19.37 125.71C19.7965 126.588 20.1639 127.493 20.4701 128.42C20.8336 129.305 21.1425 130.208 21.451 131.111L21.4525 131.116C21.7882 132.099 22.1239 133.082 22.5299 134.04C23.2999 135.62 24.09 137.19 24.92 138.74C25.1127 139.051 25.3063 139.37 25.5018 139.693C25.9362 140.409 26.3812 141.144 26.85 141.84C26.9427 141.966 27.037 142.091 27.1322 142.217C27.2467 142.367 27.3624 142.518 27.4781 142.668L27.7523 143.025C27.8832 143.196 28.0131 143.368 28.14 143.54C28.2203 143.658 28.3121 143.764 28.4047 143.872L28.4974 143.98C28.5463 144.038 28.5944 144.097 28.64 144.16C28.6556 144.179 28.6754 144.195 28.6979 144.205C28.7206 144.216 28.7452 144.221 28.7699 144.22C28.7699 144.329 28.9386 144.697 29.1078 145.065L29.11 145.07C28.7208 144.844 28.318 144.617 27.9103 144.387C27.5726 144.197 27.2318 144.004 26.8925 143.809C26.589 143.635 26.287 143.459 25.9901 143.28C23.6683 141.958 21.4579 140.45 19.38 138.77C18.62 138.14 17.7999 137.58 16.9901 137.03L16.7899 136.89C16.6532 136.704 16.5128 136.521 16.3758 136.335C16.2921 136.222 16.2096 136.107 16.13 135.99C15.2198 134.611 14.5033 133.114 14.0001 131.54L13.9987 131.534C13.6791 130.467 13.4015 129.538 14.18 128.63C14.9171 127.77 15.8136 127.06 16.8199 126.54C17.0001 127.36 17.8199 128 18.59 127.32C18.819 127.086 18.9474 126.772 18.9474 126.445C18.9474 126.118 18.819 125.804 18.59 125.57C18.1444 125.186 17.6603 125.542 17.2853 125.818L17.2765 125.824C17.2257 125.862 17.1766 125.898 17.13 125.93C16.8671 126.112 16.5743 126.245 16.2814 126.379C15.9615 126.525 15.6417 126.671 15.36 126.88L15.2841 126.936C14.8158 127.278 13.5131 128.231 13.5599 128.74C13.4801 127.902 13.4801 127.058 13.5599 126.22C13.6752 125.357 13.9142 124.515 14.2699 123.72C14.5033 123.123 14.7018 122.517 14.8978 121.918L14.8986 121.916L14.9401 121.79C15.0109 121.444 15.1251 121.108 15.2799 120.79C15.3539 120.684 15.4557 120.609 15.5594 120.534C15.6803 120.446 15.8041 120.355 15.89 120.21C15.9808 120.034 16.0292 119.84 16.0309 119.642C16.0328 119.445 15.9882 119.249 15.9005 119.072C15.8129 118.895 15.6847 118.741 15.5267 118.623C15.3685 118.504 15.1847 118.424 14.9901 118.39C14.66 118.341 14.3234 118.407 14.0358 118.576C13.7484 118.745 13.5275 119.008 13.41 119.32ZM13.41 142.75C12.1732 142.78 10.9447 142.958 9.75012 143.28C9.65539 143.067 9.51769 142.877 9.34557 142.72C9.26403 142.646 9.17541 142.58 9.08141 142.523C8.97717 142.46 8.86608 142.409 8.75012 142.37H8.70007C8.76525 142.114 8.76525 141.846 8.70007 141.59C8.73669 141.525 8.76037 141.454 8.76989 141.38C10.1525 141.127 11.5726 141.164 12.9401 141.49C13.9401 141.634 14.9244 141.872 15.88 142.2C16.2501 142.35 16.61 142.5 16.9601 142.68C15.7799 142.68 14.61 142.7 13.43 142.75H13.41Z" fill="#0A273C"/>
<path fill-rule="evenodd" clip-rule="evenodd" d="M144.76 118.62C144.92 118.502 145.105 118.423 145.3 118.39C145.619 118.367 145.936 118.45 146.204 118.625C146.471 118.8 146.674 119.059 146.78 119.36C146.812 119.676 146.752 119.994 146.606 120.277C146.46 120.559 146.236 120.793 145.96 120.95C145.883 120.987 145.802 121.016 145.719 121.036C145.676 121.046 145.633 121.054 145.59 121.06C145.586 121.103 145.586 121.147 145.59 121.19C145.652 121.631 145.791 122.057 146 122.45C146.768 123.859 147.219 125.419 147.32 127.02C147.348 128.598 147.163 130.172 146.77 131.7C146.766 131.72 146.766 131.74 146.77 131.76C147.096 131.706 147.413 131.605 147.71 131.46C148.199 131.274 148.67 131.047 149.12 130.78C149.42 130.59 149.71 130.38 150 130.17C150.01 130.07 150.1 130 150.2 130C151.157 129.186 152.016 128.263 152.76 127.25C153.212 126.776 153.605 126.249 153.93 125.68C153.804 125.594 153.696 125.486 153.61 125.36C153.371 125.085 153.251 124.727 153.276 124.363C153.3 124 153.467 123.661 153.74 123.42C154.007 123.159 154.366 123.012 154.74 123.012C155.114 123.012 155.473 123.159 155.74 123.42C155.923 123.601 156.058 123.825 156.135 124.07C156.212 124.316 156.227 124.577 156.18 124.83C156.104 125.076 155.975 125.301 155.803 125.491C155.63 125.682 155.417 125.831 155.18 125.93C155.038 125.974 154.889 125.987 154.742 125.966C154.595 125.945 154.454 125.892 154.33 125.81C154.026 126.427 153.62 126.988 153.13 127.47C152.505 128.228 151.838 128.949 151.13 129.63C151.67 129.46 152.16 129.23 152.67 129.03C153.136 128.835 153.584 128.601 154.01 128.33C153.996 128.257 153.996 128.183 154.01 128.11C154.002 127.853 154.061 127.599 154.182 127.372C154.303 127.146 154.482 126.955 154.7 126.82C155.49 126.47 156.35 127.3 156.42 128.07C156.62 129.17 155.58 129.69 154.73 129.07C154.59 128.96 154.34 128.87 154.34 128.65C154.271 128.705 154.201 128.757 154.128 128.807C154.086 128.835 154.043 128.863 154 128.89C153.074 129.463 152.06 129.881 151 130.13C150.858 130.16 150.715 130.18 150.57 130.19C150.062 130.605 149.509 130.961 148.92 131.25C148.268 131.593 147.56 131.82 146.83 131.92C146.5 132.854 146.081 133.755 145.58 134.61C145.304 135.111 144.994 135.592 144.65 136.05C145.18 135.7 145.71 135.36 146.26 135.05C147.917 134.214 149.652 133.544 151.44 133.05C152.738 132.762 154.061 132.608 155.39 132.59C156.142 132.595 156.893 132.622 157.643 132.65C158.468 132.68 159.293 132.71 160.12 132.71C160.152 132.717 160.183 132.73 160.21 132.749C160.237 132.768 160.26 132.793 160.278 132.82C160.295 132.848 160.307 132.879 160.313 132.912C160.317 132.934 160.317 132.956 160.315 132.978C160.314 132.989 160.313 132.999 160.31 133.01C160.296 133.078 160.257 133.139 160.2 133.18C159.547 133.585 158.853 133.92 158.13 134.18L156.13 135.03C154.367 135.749 152.518 136.24 150.63 136.49C149.383 136.708 148.124 136.852 146.86 136.92C145.919 136.953 144.984 137.084 144.07 137.31C143.262 137.653 142.516 138.126 141.86 138.71C141.06 139.33 140.31 140.01 139.48 140.59C138.36 141.39 137.21 142.15 136.03 142.87C136.5 142.82 137.01 142.76 137.5 142.76C138.116 142.739 138.729 142.692 139.341 142.646C140.169 142.583 140.996 142.52 141.83 142.52H142.95C142.956 142.475 142.974 142.433 143.003 142.398C143.031 142.363 143.068 142.336 143.11 142.32C143.298 142.21 143.492 142.11 143.69 142.02C144.159 141.784 144.643 141.58 145.14 141.41C145.549 141.284 145.969 141.19 146.388 141.097C146.532 141.065 146.677 141.033 146.82 141C148.419 140.563 150.1 140.518 151.72 140.87C151.795 140.678 151.928 140.514 152.1 140.4C152.291 140.248 152.511 140.136 152.747 140.073C152.983 140.01 153.229 139.996 153.47 140.033C153.712 140.07 153.943 140.156 154.149 140.286C154.356 140.416 154.533 140.588 154.67 140.79C154.778 140.97 154.848 141.17 154.877 141.378C154.906 141.586 154.892 141.798 154.837 142.001C154.782 142.203 154.686 142.393 154.556 142.557C154.426 142.722 154.264 142.859 154.08 142.96C153.96 143.03 153.833 143.087 153.7 143.13C153.756 143.26 153.789 143.399 153.8 143.54C153.87 144.86 151.8 145.74 150.8 144.86C150.638 144.676 150.527 144.452 150.478 144.212C150.429 143.972 150.444 143.723 150.52 143.49C149.826 143.305 149.116 143.185 148.4 143.13C147.55 143.04 146.69 142.96 145.83 142.96H144.91C145.977 143.547 146.996 144.216 147.96 144.96C148.745 145.564 149.477 146.233 150.15 146.96V147.01C150.316 146.797 150.541 146.638 150.797 146.552C151.054 146.467 151.329 146.459 151.59 146.53C151.763 146.575 151.925 146.655 152.065 146.767C152.204 146.878 152.319 147.017 152.402 147.175C152.485 147.333 152.534 147.507 152.546 147.685C152.557 147.864 152.532 148.042 152.47 148.21C152.02 149.15 150.19 149.11 150.02 147.98C149.937 147.763 149.913 147.529 149.95 147.3L149.88 147.23C148.91 146.299 147.866 145.446 146.76 144.68C145.978 144.067 145.141 143.529 144.26 143.07C144.224 143.043 144.2 143.004 144.19 142.96C143.892 142.958 143.591 142.953 143.289 142.948C142.171 142.93 141.035 142.912 139.98 143.03C139.04 143.135 138.091 143.172 137.139 143.208C136.733 143.224 136.327 143.239 135.92 143.26C135.824 143.266 135.728 143.275 135.633 143.289C135.541 143.302 135.45 143.319 135.36 143.34C135.334 143.35 135.306 143.35 135.28 143.34C133.72 144.28 132.14 145.17 130.55 146.05C127.32 147.81 124 149.37 120.67 150.93L120.33 151.09C120.576 151.024 120.82 150.959 121.065 150.895C122.006 150.646 122.939 150.4 123.86 150.09C125.135 149.674 126.443 149.366 127.77 149.17C129.17 148.92 130.56 148.64 131.97 148.52C135.555 148.176 139.172 148.515 142.63 149.52C143.498 149.798 144.346 150.132 145.17 150.52C145.32 150.61 145.57 150.57 145.63 150.8C145.69 151.03 145.38 151.03 145.21 151.03C145.027 151.02 144.843 151.02 144.66 151.03C143.943 151.035 143.228 151.095 142.52 151.21C141.19 151.4 139.86 151.57 138.52 151.64C136.569 151.627 134.618 151.734 132.68 151.96C130.979 152.147 129.266 152.234 127.555 152.32C126.983 152.349 126.411 152.377 125.84 152.41C124.13 152.607 122.405 152.633 120.69 152.49C119.792 152.437 118.897 152.334 118.01 152.18C115.45 153.38 112.88 154.55 110.28 155.62C109.562 155.912 108.825 156.148 108.087 156.383C107.663 156.519 107.24 156.654 106.82 156.8L105.82 157.19C106.224 157.251 106.621 157.342 107.019 157.434C107.341 157.508 107.664 157.582 107.99 157.64C110.381 158.177 112.722 158.913 114.99 159.84C115.029 159.83 115.071 159.83 115.11 159.84L115.89 159.76C117.178 159.61 118.477 159.58 119.77 159.67C120.147 159.68 120.521 159.724 120.89 159.8C120.957 159.599 121.079 159.422 121.244 159.288C121.408 159.155 121.607 159.071 121.817 159.047C122.027 159.023 122.24 159.059 122.43 159.152C122.62 159.245 122.78 159.39 122.89 159.57C122.939 159.664 122.983 159.761 123.02 159.86L123.07 159.92C123.67 161.38 121.48 161.82 120.91 160.62C120.843 160.494 120.809 160.353 120.81 160.21H120.42C119.36 160.16 118.3 160.16 117.25 160.16C117.011 160.16 116.765 160.177 116.518 160.195C116.268 160.212 116.016 160.23 115.77 160.23L115.89 160.28C117.69 161.047 119.415 161.981 121.04 163.07C121.184 162.929 121.357 162.821 121.547 162.754C121.737 162.687 121.939 162.661 122.14 162.68C123.45 162.82 124.04 164.83 122.8 165.49C122.63 165.625 122.432 165.72 122.221 165.767C122.009 165.815 121.789 165.813 121.578 165.763C121.368 165.713 121.171 165.615 121.003 165.478C120.835 165.341 120.701 165.167 120.61 164.97C120.508 164.721 120.468 164.451 120.492 164.183C120.517 163.915 120.605 163.657 120.75 163.43C120.68 163.381 120.606 163.338 120.53 163.3C117.602 161.409 114.416 159.95 111.07 158.97C109.7 158.57 108.33 158.19 106.94 157.9C106.282 157.723 105.615 157.586 104.94 157.49C103.697 157.993 102.425 158.42 101.13 158.77C100.665 158.931 100.187 159.048 99.7001 159.12C99.6305 159.127 99.5609 159.108 99.504 159.068C99.4471 159.027 99.4066 158.968 99.39 158.9C99.3861 158.879 99.3854 158.857 99.3878 158.835C99.389 158.824 99.3912 158.812 99.3944 158.801C99.3983 158.786 99.4039 158.772 99.4108 158.759C99.4191 158.743 99.4293 158.728 99.4415 158.714C99.4637 158.689 99.4913 158.669 99.5223 158.656C99.5533 158.643 99.5868 158.638 99.62 158.64C99.7523 158.616 99.8827 158.583 100.01 158.54L101.44 158.08C101.821 157.511 102.155 156.913 102.44 156.29C102.627 155.869 102.794 155.452 102.963 155.033C103.183 154.486 103.404 153.936 103.67 153.37C104.14 152.37 104.66 151.37 105.2 150.37C106.107 148.783 107.324 147.395 108.78 146.29C110.511 144.803 112.652 143.876 114.92 143.63C115.11 143.59 115.36 143.63 115.31 143.89C115.26 144.15 115.02 144.3 114.87 144.5C114.163 145.324 113.398 146.096 112.58 146.81C111.712 147.556 110.914 148.382 110.121 149.204L109.98 149.35C108.013 151.508 106.196 153.793 104.386 156.07C104.107 156.42 103.829 156.771 103.55 157.12C103.449 157.266 103.328 157.397 103.19 157.51C103.499 157.392 103.808 157.271 104.118 157.15C104.879 156.852 105.642 156.553 106.41 156.29C106.743 156.181 107.077 156.076 107.411 155.971C108.369 155.669 109.326 155.368 110.26 154.99C112.74 153.94 115.26 152.81 117.74 151.64L118.02 151.15C118.32 150.62 118.6 150.09 118.86 149.54C119.247 148.716 119.582 147.867 119.86 147C120.08 146.37 120.32 145.75 120.49 145.11C120.798 143.912 121.032 142.697 121.19 141.47C121.353 140.813 121.466 140.144 121.53 139.47C121.537 138.958 121.372 138.796 121.142 138.568C121.044 138.471 120.934 138.363 120.82 138.21C120.504 137.664 120.413 137.016 120.566 136.404C120.719 135.792 121.104 135.263 121.64 134.93C121.901 134.799 122.188 134.731 122.48 134.731C122.772 134.731 123.059 134.799 123.32 134.93C123.721 135.081 124.063 135.357 124.295 135.717C124.527 136.077 124.638 136.502 124.61 136.93L124.606 137.016C124.578 137.62 124.545 138.348 124.01 138.73C123.732 138.909 123.419 139.028 123.092 139.08C122.765 139.131 122.43 139.114 122.11 139.03C121.98 139.92 121.81 140.86 121.7 141.68C121.59 142.5 121.5 143.33 121.31 144.13C120.872 145.842 120.294 147.514 119.58 149.13C119.23 149.88 118.82 150.6 118.41 151.31L119.78 150.66L120.7 150.23C121.061 149.829 121.395 149.405 121.7 148.96C122.085 148.32 122.478 147.683 122.87 147.045C123.263 146.408 123.655 145.77 124.04 145.13C124.211 144.856 124.359 144.574 124.508 144.292C124.603 144.111 124.699 143.93 124.8 143.75C124.83 143.673 124.887 143.609 124.96 143.57C124.982 143.56 125.006 143.555 125.03 143.555C125.054 143.555 125.078 143.56 125.1 143.57L124.94 143.39C124.922 143.369 124.906 143.347 124.891 143.323C124.876 143.3 124.862 143.275 124.85 143.25H124.8C124.651 143.101 124.538 142.919 124.47 142.72C124.311 142.32 124.285 141.878 124.397 141.462C124.508 141.046 124.752 140.677 125.09 140.41C125.388 140.261 125.719 140.194 126.051 140.215C126.383 140.236 126.704 140.345 126.98 140.53C128.08 141.24 128.27 143.08 126.88 143.6L126.76 143.635C126.274 143.777 125.604 143.973 125.18 143.66C125.184 143.676 125.186 143.693 125.185 143.709C125.185 143.723 125.183 143.737 125.18 143.75C125.2 143.83 125.11 143.9 125.11 143.98C124.675 144.944 124.167 145.873 123.59 146.76C122.94 147.82 122.33 148.82 121.59 149.82C122.055 149.602 122.521 149.388 122.987 149.173C124.426 148.51 125.867 147.845 127.28 147.09C128.36 146.54 129.42 145.98 130.48 145.41C130.75 144.889 130.977 144.347 131.16 143.79C131.394 142.987 131.568 142.168 131.68 141.34C132.128 138.979 132.695 136.643 133.38 134.34C133.864 133.198 134.446 132.101 135.12 131.06C135.732 130.066 136.456 129.147 137.28 128.32C138.313 127.253 139.427 126.267 140.61 125.37C140.9 125.15 141.07 125.48 140.9 125.71C140.474 126.588 140.106 127.493 139.8 128.42C139.449 129.286 139.146 130.17 138.843 131.054C138.499 132.058 138.155 133.062 137.74 134.04C136.98 135.62 136.19 137.19 135.35 138.74C134.74 139.79 134.1 140.84 133.42 141.84C133.209 142.126 132.991 142.409 132.773 142.693C132.556 142.974 132.339 143.256 132.13 143.54C131.98 143.76 131.79 143.94 131.64 144.16C131.632 144.17 131.623 144.178 131.614 144.186C131.604 144.194 131.593 144.2 131.582 144.205C131.56 144.216 131.535 144.221 131.51 144.22C131.46 144.33 131.33 144.7 131.16 145.07C132.21 144.49 133.28 143.9 134.28 143.28C136.605 141.963 138.816 140.454 140.89 138.77C141.66 138.14 142.47 137.58 143.29 137.03L143.48 136.89C143.71 136.59 143.93 136.3 144.14 135.99C145.053 134.61 145.776 133.113 146.29 131.54L146.292 131.534C146.611 130.466 146.889 129.538 146.11 128.63C145.369 127.769 144.47 127.06 143.46 126.54C143.28 127.32 142.47 128 141.69 127.32C141.461 127.086 141.333 126.772 141.333 126.445C141.333 126.118 141.461 125.804 141.69 125.57C142.136 125.186 142.62 125.542 142.995 125.818C143.049 125.858 143.101 125.896 143.15 125.93C143.417 126.111 143.71 126.245 144.002 126.379C144.322 126.525 144.643 126.671 144.93 126.88L144.993 126.928C145.439 127.263 146.72 128.227 146.72 128.74C146.8 127.902 146.8 127.058 146.72 126.22C146.609 125.357 146.373 124.515 146.02 123.72C145.83 123.252 145.672 122.779 145.515 122.309C145.457 122.135 145.4 121.962 145.34 121.79C145.274 121.442 145.159 121.106 145 120.79C144.926 120.684 144.824 120.609 144.721 120.534C144.6 120.445 144.476 120.355 144.39 120.21C144.299 120.034 144.251 119.839 144.25 119.64C144.249 119.442 144.294 119.246 144.383 119.069C144.472 118.892 144.601 118.738 144.76 118.62ZM144.272 142.235C143.946 142.37 143.615 142.508 143.3 142.67H143.26C144.44 142.68 145.61 142.7 146.81 142.74C148.047 142.77 149.276 142.948 150.47 143.27C150.565 143.058 150.703 142.867 150.875 142.711C151.047 142.554 151.25 142.435 151.47 142.36H151.57C151.505 142.104 151.505 141.836 151.57 141.58C151.534 141.515 151.51 141.444 151.5 141.37C150.114 141.116 148.691 141.154 147.32 141.48C146.32 141.627 145.336 141.864 144.38 142.19L144.272 142.235Z" fill="#0A273C"/>
</svg>
